<svg xmlns="http://www.w3.org/2000/svg" width="132" height="18" viewBox="0 0 132 18">
    <g data-name="그룹 42">
        <g data-name="그룹 10">
            <g data-name="그룹 1">
                <path data-name="패스 1" d="M186.729 285.833h10.634l4.166 5.551 7.033-5.551h7.077l-11.076 8.445 7.369 9.527h-10.74l-4.16-5.689-7.2 5.7h-7.073l11.172-9.1z" transform="translate(-165.898 -285.833)" style="fill:#121212"/>
            </g>
            <g data-name="그룹 2">
                <path data-name="패스 2" d="M224.086 293.362h5.792l-3.407 12.211h-5.8z" transform="translate(-174.915 -287.588)" style="fill:#121212"/>
            </g>
            <g data-name="그룹 3">
                <path data-name="패스 3" d="m243.975 300.422 5.832-7.033h6.687l-3.407 12.18h-6.037l1.985-7.034-5.941 7.051h-3.025l-2.435-7.051-1.935 7.043h-3.21l3.4-12.2h5.681z" transform="translate(-177.777 -287.592)" style="fill:#121212"/>
            </g>
            <g data-name="그룹 5">
                <g data-name="그룹 4">
                    <path data-name="패스 4" d="m300.322 293.362-5.566.013-9.431 12.2h3.982l1.915-2.612h5.533l.616 2.612h5.914zm-4.021 6.815h-3.09l2.432-3.292z" transform="translate(-190.27 -287.588)" style="fill:#121212"/>
                </g>
            </g>
            <g data-name="그룹 6">
                <path data-name="패스 5" d="m308.193 293.362 6.064.013 3.434 4.816 5.471-4.829h3.907l-8.572 7.705-1.278 4.508h-5.35l1.423-5.12z" transform="translate(-195.069 -287.588)" style="fill:#121212"/>
            </g>
            <g data-name="그룹 7">
                <path data-name="패스 6" d="M179.026 293.378h-13.905l-3.7 12.2 15.675.014.76-2.777-9.459-.007.783-2.77h6.664l.657-2.367-6.679.013.5-1.8h8.039z" transform="translate(-161.42 -287.591)" style="fill:#121212"/>
            </g>
            <g data-name="그룹 9">
                <g data-name="그룹 8">
                    <path data-name="패스 7" d="m262.779 305.591 3.384-12.189 9.043-.024q6.987-.019 6.157 2.973-.591 2.125-4.972 2.735 4.91.6 4.182 3.221-.9 3.242-7.738 3.259zm6.179-1.751h1.683c2.205-.006 3.517-.038 3.937-1.55.481-1.733-.416-1.869-2.691-1.863h-1.908zm1.477-5.149h1.972a2.913 2.913 0 0 0 3.139-2.24c.382-1.374-.317-1.334-2.094-1.329h-2.016z" transform="translate(-184.654 -287.591)" style="fill:#121212"/>
                </g>
            </g>
        </g>
    </g>
</svg>
