<svg height="18" viewBox="0 0 18 18" width="18" xmlns="http://www.w3.org/2000/svg"><g fill="#f03d44"><path d="m15.364 2.636c-3.515-3.515-9.214-3.515-12.728 0-3.515 3.515-3.515 9.214 0 12.728 3.514 3.515 9.213 3.515 12.728 0 3.515-3.514 3.515-9.213 0-12.728zm-1.06 11.667c-2.93 2.93-7.679 2.93-10.607 0-2.93-2.928-2.93-7.677 0-10.606 2.928-2.93 7.677-2.93 10.606 0 2.93 2.929 2.93 7.678 0 10.606z"/><path d="m9 3c-.552 0-1 .336-1 .75v7.5c0 .414.448.75 1 .75s1-.336 1-.75v-7.5c0-.414-.448-.75-1-.75zm0 10c-.552 0-1 .448-1 1s.448 1 1 1 1-.448 1-1-.448-1-1-1z"/></g></svg>