<svg xmlns="http://www.w3.org/2000/svg" width="397" height="105" viewBox="0 0 397 105">
    <g data-name="그룹 2155">
        <text data-name="4 4 Error" transform="translate(0 83)" style="font-size:90px;font-family:Roboto-Thin,Roboto;font-weight:200;fill:#8e9daf"><tspan x="0" y="0" xml:space="preserve">4    4 Error</tspan></text>
        <g data-name="그룹 2154">
            <g data-name="그룹 2153">
                <path data-name="패스 1932" d="M119.446 224a20.2 20.2 0 0 0-15.05 6.692 1.544 1.544 0 0 0 2.3 2.06 17.181 17.181 0 0 1 25.5 0 1.544 1.544 0 1 0 2.3-2.06 20.2 20.2 0 0 0-15.05-6.692z" transform="translate(-24.925 -165.799)" style="fill:#8e9daf"/>
                <path data-name="패스 1933" d="M35.521 0a35.521 35.521 0 1 0 35.52 35.521A35.561 35.561 0 0 0 35.521 0zm0 67.952a32.432 32.432 0 1 1 32.431-32.431 32.467 32.467 0 0 1-32.431 32.431z" transform="translate(59 14.959)" style="fill:#8e9daf"/>
                <path data-name="패스 1934" d="M95.438 119.718a1.546 1.546 0 0 0-.854-1.382l-12.355-6.177a1.545 1.545 0 0 0-1.382 2.763l9.594 4.8-9.592 4.8a1.545 1.545 0 0 0 1.381 2.764l12.354-6.186a1.546 1.546 0 0 0 .854-1.382z" transform="translate(-5.551 -75.416)" style="fill:#8e9daf"/>
                <path data-name="패스 1935" d="m222.591 124.518-9.594-4.8 9.592-4.8a1.544 1.544 0 1 0-1.381-2.763l-12.355 6.177a1.544 1.544 0 0 0 0 2.763l12.355 6.177a1.545 1.545 0 0 0 1.382-2.764z" transform="translate(-108.846 -75.421)" style="fill:#8e9daf"/>
            </g>
        </g>
    </g>
</svg>
