<svg xmlns="http://www.w3.org/2000/svg" width="222" height="72" viewBox="0 0 222 72">
  <defs>
    <style>
      .cls-1 {
        fill: #656f7d;
        font-size: 12px;
        font-family: AppleSDGothicNeo-Regular, Apple SD Gothic Neo;
      }

      .cls-2 {
        font-family: NotoSans-Regular, Noto Sans;
      }

      .cls-3 {
        fill: #8e9daf;
      }
    </style>
  </defs>
  <g id="그룹_2283" data-name="그룹 2283" transform="translate(1.293)">
    <text id="이곳에_드래그_드롭_하여_파일을_첨부_하거나_파일_추가_버튼을_눌러_주세요._최대_5M_" data-name="이곳에 드래그 &amp; 드롭 하여 파일을 첨부 하거나 
파일 추가 버튼을 눌러 주세요. (최대 5M)" class="cls-1" transform="translate(109.707 47)"><tspan x="-110.292" y="0">이곳에</tspan><tspan class="cls-2" y="0"> </tspan><tspan y="0">드래그</tspan><tspan class="cls-2" y="0" xml:space="preserve"> &amp; </tspan><tspan y="0">드롭</tspan><tspan class="cls-2" y="0"> </tspan><tspan y="0">하여</tspan><tspan class="cls-2" y="0"> </tspan><tspan y="0">파일을</tspan><tspan class="cls-2" y="0"> </tspan><tspan y="0">첨부</tspan><tspan class="cls-2" y="0"> </tspan><tspan y="0">하거나</tspan><tspan class="cls-2" y="0"> </tspan><tspan x="-96.102" y="21">파일</tspan><tspan class="cls-2" y="21"> </tspan><tspan y="21">추가</tspan><tspan class="cls-2" y="21"> </tspan><tspan y="21">버튼을</tspan><tspan class="cls-2" y="21"> </tspan><tspan y="21">눌러</tspan><tspan class="cls-2" y="21"> </tspan><tspan y="21">주세요</tspan><tspan class="cls-2" y="21">. (</tspan><tspan y="21">최대</tspan><tspan class="cls-2" y="21" xml:space="preserve"> 5M)</tspan></text>
    <g id="_01_align_center" data-name="01 align center" transform="translate(98)">
      <path id="패스_98" data-name="패스 98" class="cls-3" d="M6.04,19a2.991,2.991,0,0,0,2.122-.878L12.081,14.2l-1.414-1.41L7.034,16.424,7.008,0h-2l.026,16.408-3.62-3.62L0,14.2l3.919,3.919A2.992,2.992,0,0,0,6.04,19Z" transform="translate(18.073 19) rotate(180)"/>
      <path id="패스_99" data-name="패스 99" class="cls-3" d="M22,16v5a1,1,0,0,1-1,1H3a1,1,0,0,1-1-1V16H0v5a3,3,0,0,0,3,3H21a3,3,0,0,0,3-3V16Z" transform="translate(0 0)"/>
    </g>
  </g>
</svg>
